<svg xmlns="http://www.w3.org/2000/svg" version="1.1" xmlns:xlink="http://www.w3.org/1999/xlink" xmlns:svgjs="http://svgjs.com/svgjs" width="1440" height="560" preserveAspectRatio="none" viewBox="0 0 1440 560"><g mask="url(&quot;#SvgjsMask1003&quot;)" fill="none"><rect width="1440" height="560" x="0" y="0" fill="rgba(181, 157, 164, 1)"></rect><path d="M0,405.286C79.814,403.381,158.27,393.066,229.737,357.478C307.211,318.899,374.591,264.56,424.541,193.881C482.162,112.347,556.644,20.675,536.929,-77.199C517.17,-175.289,401.92,-216.731,328.2,-284.387C263.974,-343.329,215.625,-424.938,131.831,-448.974C48.21,-472.961,-39.664,-443.215,-121.369,-413.346C-198.901,-385.003,-264.135,-337.314,-325.29,-281.865C-393.904,-219.652,-472.972,-160.741,-498.24,-71.636C-524.796,22.011,-515.195,128.887,-465.507,212.59C-417.439,293.564,-323.903,332.601,-236.896,368.617C-161.539,399.811,-81.535,407.232,0,405.286" fill="#987780"></path><path d="M1440 1048.556C1541.5819999999999 1046.656 1651.465 1076.961 1737.529 1022.9639999999999 1823.785 968.847 1831.713 848.8389999999999 1890.661 765.81 1968.095 656.7429999999999 2148.939 592.99 2137.407 459.728 2126.096 329.022 1950.87 285.271 1842.658 211.09500000000003 1760.44 154.73700000000002 1670.6970000000001 122.78699999999998 1581.359 78.57499999999999 1469.623 23.27800000000002 1373.821-106.33600000000001 1251.675-81.375 1131.2060000000001-56.75599999999997 1082.313 89.38900000000001 1017.408 193.822 961.5160000000001 283.753 915.85 377.66700000000003 901.205 482.533 886.604 587.086 892.772 693.8969999999999 933.998 791.083 975.932 889.938 1039.528 985.53 1135.232 1034.228 1227.748 1081.304 1336.214 1050.497 1440 1048.556" fill="#d2c4c8"></path></g><defs><mask id="SvgjsMask1003"><rect width="1440" height="560" fill="#ffffff"></rect></mask></defs></svg>